<svg xmlns="http://www.w3.org/2000/svg" version="1.1" xmlns:xlink="http://www.w3.org/1999/xlink" xmlns:svgjs="http://svgjs.dev/svgjs" width="1500" height="1500" viewBox="0 0 1500 1500"><rect width="1500" height="1500" fill="#ffffff"></rect><g transform="matrix(0.6666666666666666,0,0,0.6666666666666666,249.39393939393938,435.99032258064517)"><svg viewBox="0 0 396 248" data-background-color="#ffffff" preserveAspectRatio="xMidYMid meet" height="939" width="1500" xmlns="http://www.w3.org/2000/svg" xmlns:xlink="http://www.w3.org/1999/xlink"><g id="tight-bounds" transform="matrix(1,0,0,1,0.2400000000000091,0.4000000000000057)"><svg viewBox="0 0 395.52 247.2" height="247.2" width="395.52"><g><svg></svg></g><g><svg viewBox="0 0 395.52 247.2" height="247.2" width="395.52"><g transform="matrix(1,0,0,1,75.54432,88.61152223597524)"><svg viewBox="0 0 244.43135999999998 69.9769555280495" height="69.9769555280495" width="244.43135999999998"><g><svg viewBox="0 0 244.43135999999998 69.9769555280495" height="69.9769555280495" width="244.43135999999998"><g><svg viewBox="0 0 244.43135999999998 69.9769555280495" height="69.9769555280495" width="244.43135999999998"><g><svg viewBox="0 0 244.43135999999998 69.9769555280495" height="69.9769555280495" width="244.43135999999998"><g id="textblocktransform"><svg viewBox="0 0 244.43135999999998 69.9769555280495" height="69.9769555280495" width="244.43135999999998" id="textblock"><g><svg viewBox="0 0 244.43135999999998 69.9769555280495" height="69.9769555280495" width="244.43135999999998"><g transform="matrix(1,0,0,1,0,0)"><svg width="244.43135999999998" viewBox="2.86 -35.01 122.28 35.01" height="69.9769555280495" data-palette-color="#2a2c35"><path d="M9.84-13.99L23.85-13.99 23.85-21Q23.85-22.44 23.3-23.72 22.75-25 21.8-25.95 20.85-26.9 19.57-27.45 18.29-28 16.85-28L16.85-28Q15.41-28 14.12-27.45 12.84-26.9 11.89-25.95 10.94-25 10.39-23.72 9.84-22.44 9.84-21L9.84-21 9.84-13.99ZM30.86-21L30.86 0 23.85 0 23.85-7.01 9.84-7.01 9.84 0 2.86 0 2.86-21Q2.86-23.9 3.96-26.45 5.05-29 6.95-30.91 8.84-32.81 11.39-33.91 13.94-35.01 16.85-35.01L16.85-35.01Q19.75-35.01 22.3-33.91 24.85-32.81 26.76-30.91 28.66-29 29.76-26.45 30.86-23.9 30.86-21L30.86-21ZM50.95-28L43.94-28 43.94-13.99 50.95-13.99Q52.39-13.99 53.66-14.54 54.93-15.09 55.88-16.04 56.83-16.99 57.38-18.27 57.93-19.56 57.93-21L57.93-21Q57.93-22.44 57.38-23.72 56.83-25 55.88-25.95 54.93-26.9 53.66-27.45 52.39-28 50.95-28L50.95-28ZM43.94-7.01L43.94 0 36.94 0 36.94-35.01 50.95-35.01Q52.88-35.01 54.66-34.51 56.44-34.01 57.99-33.09 59.54-32.18 60.83-30.9 62.11-29.61 63.02-28.05 63.94-26.49 64.44-24.71 64.94-22.92 64.94-21L64.94-21Q64.94-18.12 63.84-15.56 62.74-13.01 60.84-11.11 58.93-9.2 56.38-8.11 53.83-7.01 50.95-7.01L50.95-7.01 43.94-7.01ZM93.04-7.01L93.04 0 69.04 0 69.04-35.01 93.04-35.01 93.04-28 76.04-28 76.04-21 87.54-21 87.54-13.99 76.04-13.99 76.04-7.01 93.04-7.01ZM114.4-17.5L125.14 0 116.64 0 109.9-11.3 103.14 0 94.69 0 105.44-17.5 94.69-35.01 103.14-35.01 109.9-23.71 116.64-35.01 125.14-35.01 114.4-17.5Z" opacity="1" transform="matrix(1,0,0,1,0,0)" fill="#2a2c35" class="wordmark-text-0" data-fill-palette-color="primary" id="text-0"></path></svg></g></svg></g></svg></g></svg></g></svg></g></svg></g></svg></g><path d="M205.763 82.612L205.763 25.688 9.939 25.688 9.939 221.512 205.763 221.512 205.763 164.588 199.452 164.588 199.452 215.201 16.25 215.201 16.25 31.999 199.452 31.999 199.452 82.612Z" fill="#2a2c35" stroke="transparent" data-fill-palette-color="tertiary"></path></svg></g><defs></defs></svg><rect width="395.52" height="247.2" fill="none" stroke="none" visibility="hidden"></rect></g></svg></g></svg>